ModelForces
version=1
nRows=4
nColumns=155
inDegrees=no

This file contains the forces exerted on a model during a simulation.

A force is a generalized force, meaning that it can be either a force (N) or a torque (Nm).

Units are S.I. units (second, meters, Newtons, ...)
Angles are in degrees.

endheader
time	glut_med1_r	glut_med2_r	glut_med3_r	glut_min1_r	glut_min2_r	glut_min3_r	semimem_r	semiten_r	bifemlh_r	bifemsh_r	sar_r	add_long_r	add_brev_r	add_mag1_r	add_mag2_r	add_mag3_r	tfl_r	pect_r	grac_r	glut_max1_r	glut_max2_r	glut_max3_r	iliacus_r	psoas_r	quad_fem_r	gem_r	peri_r	rect_fem_r	vas_med_r	vas_int_r	vas_lat_r	med_gas_r	lat_gas_r	soleus_r	tib_post_r	flex_dig_r	flex_hal_r	tib_ant_r	per_brev_r	per_long_r	per_tert_r	ext_dig_r	ext_hal_r	glut_med1_l	glut_med2_l	glut_med3_l	glut_min1_l	glut_min2_l	glut_min3_l	semimem_l	semiten_l	bifemlh_l	bifemsh_l	sar_l	add_long_l	add_brev_l	add_mag1_l	add_mag2_l	add_mag3_l	tfl_l	pect_l	grac_l	glut_max1_l	glut_max2_l	glut_max3_l	iliacus_l	psoas_l	quad_fem_l	gem_l	peri_l	rect_fem_l	vas_med_l	vas_int_l	vas_lat_l	med_gas_l	lat_gas_l	soleus_l	tib_post_l	flex_dig_l	flex_hal_l	tib_ant_l	per_brev_l	per_long_l	per_tert_l	ext_dig_l	ext_hal_l	ercspn_r	ercspn_l	intobl_r	intobl_l	extobl_r	extobl_l	femur_lat_meniscii_r.femur_lat_r.force.X	femur_lat_meniscii_r.femur_lat_r.force.Y	femur_lat_meniscii_r.femur_lat_r.force.Z	femur_lat_meniscii_r.femur_lat_r.torque.X	femur_lat_meniscii_r.femur_lat_r.torque.Y	femur_lat_meniscii_r.femur_lat_r.torque.Z	femur_lat_meniscii_r.meniscus_lat_r.force.X	femur_lat_meniscii_r.meniscus_lat_r.force.Y	femur_lat_meniscii_r.meniscus_lat_r.force.Z	femur_lat_meniscii_r.meniscus_lat_r.torque.X	femur_lat_meniscii_r.meniscus_lat_r.torque.Y	femur_lat_meniscii_r.meniscus_lat_r.torque.Z	femur_med_meniscii_r.femur_med_r.force.X	femur_med_meniscii_r.femur_med_r.force.Y	femur_med_meniscii_r.femur_med_r.force.Z	femur_med_meniscii_r.femur_med_r.torque.X	femur_med_meniscii_r.femur_med_r.torque.Y	femur_med_meniscii_r.femur_med_r.torque.Z	femur_med_meniscii_r.meniscus_med_r.force.X	femur_med_meniscii_r.meniscus_med_r.force.Y	femur_med_meniscii_r.meniscus_med_r.force.Z	femur_med_meniscii_r.meniscus_med_r.torque.X	femur_med_meniscii_r.meniscus_med_r.torque.Y	femur_med_meniscii_r.meniscus_med_r.torque.Z	femur_med_tibia_r.tibia_upper_r.force.X	femur_med_tibia_r.tibia_upper_r.force.Y	femur_med_tibia_r.tibia_upper_r.force.Z	femur_med_tibia_r.tibia_upper_r.torque.X	femur_med_tibia_r.tibia_upper_r.torque.Y	femur_med_tibia_r.tibia_upper_r.torque.Z	femur_med_tibia_r.femur_med_r.force.X	femur_med_tibia_r.femur_med_r.force.Y	femur_med_tibia_r.femur_med_r.force.Z	femur_med_tibia_r.femur_med_r.torque.X	femur_med_tibia_r.femur_med_r.torque.Y	femur_med_tibia_r.femur_med_r.torque.Z	femur_lat_tibia_r.tibia_upper_r.force.X	femur_lat_tibia_r.tibia_upper_r.force.Y	femur_lat_tibia_r.tibia_upper_r.force.Z	femur_lat_tibia_r.tibia_upper_r.torque.X	femur_lat_tibia_r.tibia_upper_r.torque.Y	femur_lat_tibia_r.tibia_upper_r.torque.Z	femur_lat_tibia_r.femur_lat_r.force.X	femur_lat_tibia_r.femur_lat_r.force.Y	femur_lat_tibia_r.femur_lat_r.force.Z	femur_lat_tibia_r.femur_lat_r.torque.X	femur_lat_tibia_r.femur_lat_r.torque.Y	femur_lat_tibia_r.femur_lat_r.torque.Z	aACL_R	pACL_R	aPCL_R	pPCL_R	aMCL_R	mMCL_R	pMCL_R	aLCL_R	mLCL_R	pLCL_R	aPCL_L	pPCL_L	aMCL_L	aLCL_L
      0.20667703	      9.79741372	      7.20649553	      7.73707922	      3.34769696	      3.92680910	      4.14225763	      0.00000000	    164.56790680	    172.66024529	    334.26679833	    123.37525694	      7.16002215	      5.20270647	      3.70674104	      3.13402297	      5.21832048	      3.19708294	      2.82293336	     93.41607034	      4.65101136	      7.07283790	      5.30239282	     25.45465463	     16.14508974	      4.58926460	      3.31171100	      5.61728014	     81.81665804	     39.85871150	     31.08161129	     55.09772553	      0.00000000	      0.00000000	      0.00000000	      0.00000000	      0.00000000	      0.00000000	     34.49375346	      2.40356333	      4.53563294	     24.67073065	     51.74889361	     12.06950628	      9.79741372	      7.20649553	      7.73707922	      3.34769696	      3.92680910	      4.14225763	     10.52495295	      5.28820247	     10.35808413	      9.13295841	      1.91137502	      7.16002215	      5.20270647	      3.70674104	      3.13402297	      5.21832048	      4.85922359	      2.82293336	      1.96828104	      4.65101136	      7.07283790	      5.30239282	     25.45465463	     16.14508974	      4.58926460	      3.31171100	      5.61728014	     14.33615923	      0.00000000	      0.00000000	      0.00000000	     19.46855335	      9.09886882	     43.39678226	     47.45814470	      4.26452132	      3.71670266	     11.22994378	      5.94613422	     15.94967376	      2.49736255	      7.91067355	      2.53255839	     31.50078960	     31.50078960	     11.56871229	     11.56871229	     29.11533351	     29.11533351	    220.17270753	    133.01108778	      6.98043597	     -5.81548739	      5.07492573	     87.55502910	   -220.17270753	   -133.01108778	     -6.98043597	      3.37493972	     -5.77187648	      2.70354050	      0.28369885	     -0.00520770	     -0.08453442	      0.03356002	     -0.00457156	      0.11288903	     -0.28369885	      0.00520770	      0.08453442	     -0.00028602	      0.00617953	     -0.00131999	   -893.81965754	   -386.04463283	    294.27751855	     -8.74908032	     21.62894202	      2.00948359	    893.81965754	    386.04463283	   -294.27751855	    125.51715316	    -15.81414063	    360.28245186	   -222.16678745	   -110.39012468	    -60.07505352	      3.51340369	     -7.55684912	      0.89818085	    222.16678745	    110.39012468	     60.07505352	    -26.91274848	      5.43266235	     89.53946647	      0.10922502	      0.00000000	    938.40255566	    589.82227299	     27.20400555	     13.08448545	      0.00000000	      0.00000000	      0.00000000	      0.00000000	      0.00000000	      0.00000000	      0.00000001	      0.00000000
      0.20723606	      9.78098615	      7.19526714	      7.72487519	      3.34270017	      3.92136441	      4.13530919	      0.00000000	    164.61736536	    173.56853579	    335.34965893	    123.27140406	      7.14873472	      5.19501307	      3.70101314	      3.12905113	      5.20930428	      3.18947495	      2.81869076	     93.34892040	      4.64374896	      7.06176499	      5.29395093	     25.43409934	     16.12170566	      4.58226387	      3.30833970	      5.60848334	     98.12646263	     40.01980601	     29.20159171	     55.27122313	      0.00000000	      0.00000000	      0.00000000	      0.00000000	      0.00000000	      0.00000000	     34.43506958	      2.37355901	      4.53124202	     24.56136356	     51.39403683	     11.97860234	      9.78098615	      7.19526714	      7.72487519	      3.34270017	      3.92136441	      4.13530919	     10.53916166	      5.27938374	     10.33902382	      9.11901330	      1.90853541	      7.14873472	      5.19501307	      3.70101314	      3.12905113	      5.20930428	      4.85364429	      2.81869076	      1.96530523	      4.64374896	      7.06176499	      5.29395093	     25.43409934	     16.12170566	      4.58226387	      3.30833970	      5.60848334	     14.30961060	      0.00000000	      0.00000000	      0.00000000	     19.44181600	      9.08555297	     43.31529025	     47.42225666	      4.24761577	      3.70127793	     11.20980027	      5.93469202	     15.92618597	      2.49375465	      7.90291777	      2.53033026	     31.45366421	     31.45366421	     11.54993507	     11.54993507	     29.09840117	     29.09840117	    219.98764362	    129.89467510	      6.43880581	     -5.52155643	      5.05958716	     87.49649917	   -219.98764362	   -129.89467510	     -6.43880581	      3.28919405	     -5.74678983	      2.63762291	      0.22304541	     -0.00937584	     -0.06787091	      0.02688191	     -0.00360488	      0.08878785	     -0.22304541	      0.00937584	      0.06787091	     -0.00017163	      0.00490590	     -0.00118907	   -892.86290969	   -377.70392848	    295.27788717	     -8.58920336	     21.62807215	      1.89442015	    892.86290969	    377.70392848	   -295.27788717	    125.77286021	    -15.78666147	    359.91819512	   -229.36239866	   -111.66506890	    -62.00042585	      3.56444785	     -7.81319308	      0.88712196	    229.36239866	    111.66506890	     62.00042585	    -27.72339490	      5.61212778	     92.44991681	      0.84415270	      0.00000000	    942.22422144	    591.75685400	     27.31391609	     13.13269053	      0.00000000	      0.00000000	      0.00000000	      0.00000000	      0.00000000	      0.00000000	      0.00000001	      0.00000000
      0.20779510	      9.76467847	      7.18412153	      7.71276134	      3.33773995	      3.91595981	      4.12841224	      0.00000000	    164.68214583	    174.48358064	    336.36912945	    123.16677168	      7.13753071	      5.18737585	      3.69532602	      3.12411612	      5.20035496	      3.18263035	      2.81447926	     93.28370891	      4.63654028	      7.05077399	      5.28557160	     25.41369700	     16.09849658	      4.57531460	      3.30499374	      5.59970712	    108.20189846	     40.16364087	     30.57681228	     55.43235503	      0.00000000	      0.00000000	      0.00000000	      0.00000000	      0.00000000	      0.00000000	     34.38088541	      2.33984502	      4.52142854	     24.44857751	     51.05059405	     11.89204789	      9.76467847	      7.18412153	      7.71276134	      3.33773995	      3.91595981	      4.12841224	     10.55224119	      5.27063043	     10.32009384	      9.10517071	      1.90571656	      7.13753071	      5.18737585	      3.69532602	      3.12411612	      5.20035496	      4.84810624	      2.81447926	      1.96235125	      4.63654028	      7.05077399	      5.28557160	     25.41369700	     16.09849658	      4.57531460	      3.30499374	      5.59970712	     14.28325443	      0.00000000	      0.00000000	      0.00000000	     19.41507859	      9.07225035	     43.23426393	     47.38661394	      4.23073694	      3.68596132	     11.18980145	      5.92332985	     15.90284616	      2.49017366	      7.89514164	      2.52808204	     31.40688379	     31.40688379	     11.53129695	     11.53129695	     29.08159505	     29.08159505	    219.53395193	    128.58699071	      6.88987869	     -5.67658454	      5.06210697	     87.31984269	   -219.53395193	   -128.58699071	     -6.88987869	      3.26556095	     -5.76557851	      2.63222379	      0.16540595	     -0.00784873	     -0.05718701	      0.02263155	     -0.00265371	      0.06585340	     -0.16540595	      0.00784873	      0.05718701	     -0.00011957	      0.00380224	     -0.00089806	   -892.34984027	   -375.16466045	    295.72785113	     -8.48854086	     21.60939653	      1.99534109	    892.34984027	    375.16466045	   -295.72785113	    125.88457136	    -15.75734993	    359.66761941	   -236.31831105	   -111.77909010	    -62.95822879	      3.57541997	     -8.02514520	      0.83553035	    236.31831105	    111.77909010	     62.95822879	    -28.11588540	      5.77329813	     95.27693778	      0.85302992	      0.00000000	    946.42809336	    594.92725349	     26.94018658	     12.97154748	      0.00000000	      0.00000000	      0.00000000	      0.00000000	      0.00000000	      0.00000000	      0.00000001	      0.00000000
      0.20833123	      9.74915109	      7.17350997	      7.70122811	      3.33301713	      3.91081411	      4.12184600	      0.00000000	    164.69523430	    175.27924198	    336.96287118	    123.02024793	      7.12686372	      5.18010406	      3.68991018	      3.11941775	      5.19183481	      3.17696890	      2.81046938	     93.18130201	      4.62967716	      7.04030987	      5.27759404	     25.39427353	     16.07640196	      4.56869813	      3.30180855	      5.59131065	    110.63366422	     40.25517106	     30.96688111	     55.55873281	      0.00000000	      0.00000000	      0.00000000	      0.00000000	      0.00000000	      0.00000000	     34.33824238	      2.30371393	      4.50624410	     24.34094407	     50.73801021	     11.81408605	      9.74915109	      7.17350997	      7.70122811	      3.33301713	      3.91081411	      4.12184600	     10.56376850	      5.26229689	     10.30206155	      9.09199112	      1.90303261	      7.12686372	      5.18010406	      3.68991018	      3.11941775	      5.19183481	      4.84283363	      2.81046938	      1.95953870	      4.62967716	      7.04030987	      5.27759404	     25.39427353	     16.07640196	      4.56869813	      3.30180855	      5.59131065	     14.25815807	      0.00000000	      0.00000000	      0.00000000	     19.38943988	      9.05950658	     43.15699550	     47.35266124	      4.21457646	      3.67137569	     11.17075740	      5.91250808	     15.88060140	      2.48676455	      7.88766412	      2.52590717	     31.36234251	     31.36234251	     11.51355248	     11.51355248	     29.06559545	     29.06559545	    218.31981852	    128.44896379	      6.24312688	     -5.41306961	      5.02855066	     86.81302604	   -218.31981852	   -128.44896379	     -6.24312688	      3.25860585	     -5.71674507	      2.68699643	      0.09986699	     -0.00468085	     -0.04148362	      0.01642659	     -0.00159492	      0.03976152	     -0.09986699	      0.00468085	      0.04148362	     -0.00008966	      0.00247566	     -0.00053164	   -892.25220823	   -373.12144141	    297.73280015	     -8.42138873	     21.65580355	      2.10034614	    892.25220823	    373.12144141	   -297.73280015	    126.64190540	    -15.75247157	    359.58360921	   -242.18729538	   -113.20421126	    -64.22419709	      3.61925482	     -8.22288205	      0.85228345	    242.18729538	    113.20421126	     64.22419709	    -28.65949277	      5.91447834	     97.64250222	      0.81063135	      0.00000000	    950.51955606	    598.07121523	     26.58105300	     12.82142154	      0.00000000	      0.00000000	      0.00000000	      0.00000000	      0.00000000	      0.00000000	      0.00000001	      0.00000000
